<?xml version="1.0" encoding="UTF-8" standalone="no"?>
<!-- Created with Inkscape (http://www.inkscape.org/) -->

<svg
   xmlns:dc="http://purl.org/dc/elements/1.1/"
   xmlns:cc="http://creativecommons.org/ns#"
   xmlns:rdf="http://www.w3.org/1999/02/22-rdf-syntax-ns#"
   xmlns:svg="http://www.w3.org/2000/svg"
   xmlns="http://www.w3.org/2000/svg"
   xmlns:sodipodi="http://sodipodi.sourceforge.net/DTD/sodipodi-0.dtd"
   xmlns:inkscape="http://www.inkscape.org/namespaces/inkscape"
   version="1.1"
   id="svg3713"
   width="2000"
   height="776"
   viewBox="0 0 200.02 77.60776"
   sodipodi:docname="tpt_logo.svg"
   inkscape:export-filename="C:\Users\Marcel\Desktop\tpt_logo.png"
   inkscape:export-xdpi="96"
   inkscape:export-ydpi="96"
   inkscape:version="0.92.3 (2405546, 2018-03-11)">
  <metadata
     id="metadata3719">
    <rdf:RDF>
      <cc:Work
         rdf:about="">
        <dc:format>image/svg+xml</dc:format>
        <dc:type
           rdf:resource="http://purl.org/dc/dcmitype/StillImage" />
        <dc:title></dc:title>
      </cc:Work>
    </rdf:RDF>
  </metadata>
  <defs
     id="defs3717" />
  <sodipodi:namedview
     pagecolor="#ffffff"
     bordercolor="#666666"
     borderopacity="1"
     objecttolerance="10"
     gridtolerance="10"
     guidetolerance="10"
     inkscape:pageopacity="0"
     inkscape:pageshadow="2"
     inkscape:window-width="2560"
     inkscape:window-height="1346"
     id="namedview3715"
     showgrid="false"
     units="px"
     inkscape:zoom="0.44608209"
     inkscape:cx="977.19845"
     inkscape:cy="94.416603"
     inkscape:window-x="-11"
     inkscape:window-y="-11"
     inkscape:window-maximized="1"
     inkscape:current-layer="g5409"
     inkscape:pagecheckerboard="true"
     showborder="true"
     borderlayer="false"
     inkscape:showpageshadow="true"
     scale-x="0.10001" />
  <g
     id="g5409"
     transform="translate(0.44839281,-91.230536)">
    <path
       inkscape:connector-curvature="0"
       id="path4164"
       d="m 22.432658,168.00835 c 0,-0.055 -0.254695,-0.15192 -0.565989,-0.2153 -2.134835,-0.43463 -2.847312,-0.59215 -3.995902,-0.88348 -1.301549,-0.33013 -3.859394,-1.17531 -4.413072,-1.4582 -0.367698,-0.18786 -0.367698,-0.23688 0,-0.71495 1.13168,-1.47135 1.614451,-2.10689 1.778829,-2.34174 0.103768,-0.14826 0.407643,-0.53638 0.675278,-0.8625 0.267635,-0.32612 0.639755,-0.81126 0.826933,-1.07808 0.187179,-0.26682 0.489719,-0.66502 0.672314,-0.88488 0.182594,-0.21986 0.501786,-0.62137 0.709315,-0.89223 0.207529,-0.27085 0.510737,-0.65527 0.673796,-0.85426 0.455537,-0.55591 0.397332,-0.76184 -0.323422,-1.14427 -1.291057,-0.68502 -3.641551,-2.54556 -4.644078,-3.67602 -0.516706,-0.58265 -0.664469,-0.61847 -1.336347,-0.32401 -0.253586,0.11114 -0.630862,0.26248 -0.838391,0.3363 -0.706578,0.25134 -1.9921052,0.71781 -3.0725041,1.1149 -1.5833881,0.58195 -1.6613005,0.61098 -2.4256654,0.9038 -0.3854113,0.14764 -0.9674847,0.36189 -1.2935049,0.4761 -0.3260095,0.11422 -0.8921813,0.32746 -1.2581657,0.47388 -1.0336245,0.41351 -1.0646192,0.40101 -1.5444158,-0.62321 -0.5505721,-1.17527 -0.9044821,-2.28289 -1.19440838,-3.73805 -0.13085656,-0.65678 -0.2796307,-1.19413 -0.33060202,-1.19413 -0.0509821,0 -0.0911727,-0.18193 -0.0893076,-0.40428 0.00248,-0.29248 0.069525,-0.45096 0.24256653,-0.57307 1.02962487,-0.72665 4.72059277,-3.07097 7.57008117,-4.80814 0.7115285,-0.43378 1.3957462,-0.9049 1.5204901,-1.04694 0.1977834,-0.22519 0.2366371,-0.45169 0.3035421,-1.76978 0.08376,-1.65015 0.245713,-2.72095 0.619755,-4.09776 0.36306,-1.33639 0.501944,-1.26668 -2.4565408,-1.23302 -1.3567447,0.0154 -2.9762052,0.0456 -3.5987926,0.0671 -0.6607513,0.0228 -1.1887917,-0.006 -1.2684505,-0.0696 -0.106201,-0.0845 -0.036622,-0.29076 0.3136224,-0.92952 0.7106552,-1.29606 3.2163783,-5.51819 3.5670972,-6.01055 0.297171,-0.41719 0.7283465,-0.6836 1.3766028,-0.85055 0.2766229,-0.0712 2.5650685,-0.76178 3.7193485,-1.12231 2.607124,-0.81431 3.488245,-1.08361 3.750095,-1.14612 0.308674,-0.0737 0.569995,-0.34792 2.355804,-2.47208 0.548341,-0.65223 1.691089,-1.89262 2.539441,-2.75642 0.848351,-0.86378 1.542455,-1.64324 1.542455,-1.73211 0,-0.0943 -0.370414,-0.34825 -0.88941,-0.60981 -1.17846,-0.59391 -2.77604,-1.6243 -2.77604,-1.79045 0,-0.22048 3.947515,-3.33123 6.522099,-5.13959 l 1.293442,-0.9085 3.510928,-0.0539 3.510929,-0.0539 0.855516,-0.55215 c 1.603779,-1.03507 4.828718,-2.91307 6.085411,-3.54375 1.372329,-0.68872 1.400715,-0.719 1.397333,-1.49047 -0.0016,-0.36655 -0.0474,-1.12651 -0.101769,-1.68882 -0.08495,-0.87857 -0.0746,-1.04913 0.07353,-1.21282 0.09481,-0.10476 0.213074,-0.19048 0.26281,-0.19048 0.04973,0 0.539478,-0.21005 1.088316,-0.46678 1.690868,-0.79091 7.421232,-3.090864 7.700954,-3.090864 0.182099,0 2.105144,0.957394 3.071243,1.529034 l 0.718492,0.42513 2.24621,-0.709992 c 2.85714,-0.903091 2.666344,-0.846244 4.186744,-1.247396 2.281642,-0.601996 2.384902,-0.635481 2.559183,-0.829782 0.09431,-0.105134 0.687941,-0.894607 1.319184,-1.75437 0.631244,-0.859764 1.253936,-1.617779 1.383761,-1.68448 0.241936,-0.124291 0.968234,-0.265605 2.769519,-0.538853 0.563294,-0.08545 1.31525,-0.20022 1.671014,-0.255051 0.355764,-0.05482 1.277517,-0.196306 2.04834,-0.314409 0.770822,-0.118092 1.55469,-0.246642 1.741928,-0.285657 0.400221,-0.0834 0.475792,0.01833 0.685196,0.922303 0.07554,0.326117 0.229327,0.919963 0.341738,1.319658 0.232866,0.827983 0.368432,0.912881 1.267361,0.793635 0.286554,-0.03801 1.955717,-0.06881 3.709253,-0.06844 l 3.188247,0.0011 0.893772,-0.612852 c 0.491574,-0.337082 1.597215,-1.063347 2.456979,-1.613941 0.859763,-0.550594 1.624651,-1.053052 1.69975,-1.116582 0.0993,-0.08399 0.182265,-0.06977 0.304169,0.05213 0.0922,0.0922 0.249061,0.16847 0.348591,0.169494 0.374602,0.0039 2.256199,0.213944 2.93005,0.327142 2.321218,0.389907 3.23422,0.606966 3.23422,0.768893 0,0.129207 -1.258821,2.376828 -1.68523,3.008967 -0.350493,0.51961 -0.251425,0.708262 0.48408,0.921861 0.881424,0.255967 2.7205,1.014187 3.853731,1.588822 0.539861,0.273755 1.075116,0.497735 1.189455,0.497735 0.114339,0 1.536106,-0.436619 3.159476,-0.970266 1.62337,-0.533646 3.06898,-0.970266 3.21246,-0.970266 0.14886,0 0.66043,0.289301 1.19149,0.673796 1.00448,0.727279 3.04315,2.617811 3.03689,2.816211 -0.004,0.11602 -2.25449,1.84722 -3.79744,2.92077 -0.40082,0.27888 -0.77308,0.58987 -0.82725,0.69106 -0.0735,0.13741 0.0136,0.36036 0.34424,0.88034 0.49454,0.7778 1.16858,2.26964 1.4268,3.1579 0.29385,1.01078 0.12149,0.97085 3.6864,0.85415 2.87934,-0.0942 3.12068,-0.0881 3.3065,0.0849 0.18211,0.1695 0.2056,0.43672 0.25672,2.92087 0.0538,2.61349 0.047,2.74261 -0.15404,2.92208 -0.21176,0.18905 -1.12466,0.54188 -1.91599,0.74052 -0.23484,0.0589 -0.47741,0.14664 -0.53903,0.19487 -0.0616,0.0482 -0.23334,0.11381 -0.38158,0.14574 -0.14823,0.0319 -0.90019,0.28419 -1.67101,0.56059 -0.77082,0.27642 -1.55189,0.54816 -1.73571,0.60389 -0.45173,0.13693 -0.69356,0.42931 -0.86186,1.04199 -0.37872,1.37864 -0.45232,1.6174 -0.56155,1.82149 -0.11455,0.21403 -0.23626,0.2219 -4.50723,0.2915 -5.29098,0.0862 -11.411569,0.0935 -11.491413,0.0136 -0.05987,-0.0599 0.168091,-0.79673 0.353882,-1.14389 0.212198,-0.3965 0.652663,-2.09773 0.762003,-2.94312 0.133492,-1.03213 0.04287,-2.74977 -0.196536,-3.72504 -0.57255,-2.33242 -2.206367,-4.51519 -4.487707,-5.99557 -1.936274,-1.25645 -3.705415,-1.90283 -7.190424,-2.62711 -2.999594,-0.62339 -9.75968,-0.41815 -13.745437,0.41734 -4.507584,0.94486 -7.294541,1.79956 -11.697097,3.58721 -1.193422,0.48458 -4.992399,2.35022 -5.965265,2.92948 -0.464427,0.27653 -0.873613,0.50277 -0.909301,0.50277 -0.03569,0 -0.334886,0.17418 -0.664888,0.38704 -0.33,0.21288 -1.133648,0.7289 -1.785882,1.14671 -4.071751,2.60833 -8.213683,6.37626 -10.638849,9.67822 -2.229915,3.03611 -3.388399,5.69486 -3.757957,8.62459 -0.529744,4.19963 1.691029,8.00787 5.93393,10.17565 1.902331,0.97194 4.045597,1.63112 6.684055,2.05575 2.806734,0.4517 8.220337,0.2991 11.773502,-0.3319 0.516375,-0.0917 0.981957,-0.14009 1.034626,-0.10755 0.05267,0.0326 0.153308,1.86803 0.22364,4.07884 0.07033,2.21082 0.179278,5.4508 0.242102,7.19998 0.236209,6.57668 0.280825,9.21236 0.158212,9.3462 -0.153116,0.16712 -1.895588,0.61701 -4.969205,1.28299 -0.795697,0.17241 -0.892571,0.1938 -2.856895,0.63071 -0.681882,0.15167 -1.458095,0.32062 -1.724918,0.37544 -0.59946,0.12316 -1.921695,0.38886 -2.640091,0.53053 -0.907052,0.17885 -0.861479,0.35242 -0.875853,-3.33574 -0.01499,-3.84576 0.06825,-3.60872 -1.227579,-3.49589 -2.086106,0.18163 -7.049544,0.24584 -9.180411,0.11876 l -1.256571,-0.0749 -1.923745,1.54849 c -2.039646,1.64177 -3.17319,2.51691 -5.796129,4.47483 -0.894185,0.66748 -1.684386,1.26177 -1.756001,1.32065 -0.163896,0.13474 -0.354924,0.13849 -0.354924,0.007 z"
       style="fill:#2c6aa2;stroke-width:0.10780735" />
    <a
       transform="matrix(0.10780735,0,0,0.10780735,117.31362,266.55141)"
       id="a4229">
      <path
         style="fill:#000000"
         d="m -477.83842,-1102.3223 c -22.63346,-3.2968 -39.84973,-17.3602 -45.79843,-37.4112 l -1.4907,-5.0247 12.25687,-5.5765 12.25688,-5.5764 2.25188,5.433 c 3.05414,7.3687 10.32155,14.482 17.70401,17.3286 8.20269,3.1629 21.22593,3.772 28.958,1.3544 7.83907,-2.451 15.33894,-9.7651 17.34341,-16.9138 5.05662,-18.0338 -1.79927,-27.1299 -32.0454,-42.5166 -31.0372,-15.7892 -42.83173,-25.0583 -49.1989,-38.6646 -2.73832,-5.8517 -3.18956,-8.0346 -3.57012,-17.271 -0.31859,-7.7327 0.005,-12.2932 1.20509,-16.9771 6.33938,-24.745 31.23576,-39.9292 61.74503,-37.658 20.92247,1.5575 36.41815,9.3077 44.6303,22.3217 5.61299,8.8951 5.83412,8.4407 -7.31514,15.0336 l -11.64825,5.8404 -6.65765,-6.6468 c -8.37673,-8.3631 -13.67813,-10.42 -25.14525,-9.7562 -10.10535,0.585 -17.12391,4.278 -21.50972,11.3179 -2.54651,4.0876 -2.99771,5.8123 -3,11.4678 -0.005,13.3334 8.07575,21.1899 35.99731,34.9967 20.99381,10.3811 28.90453,15.3512 36.56704,22.974 9.09176,9.0446 12.87866,19.0437 12.89115,34.0382 0.018,21.6449 -8.43365,38.2413 -24.89131,48.8784 -12.73257,8.2294 -32.80069,11.7372 -51.5361,9.0082 z m 201.96922,0.4749 c -15.32642,-1.7311 -26.49861,-4.8361 -38,-10.5609 -25.72686,-12.8057 -43.3646,-35.2305 -50.72588,-64.4936 -3.21595,-12.7843 -3.20033,-37.8885 0.0316,-50.7469 2.66543,-10.6047 9.43877,-25.3566 15.57048,-33.9116 4.81976,-6.7246 15.81888,-17.9181 22.1238,-22.5147 17.28548,-12.602 36.71895,-18.4216 61.5,-18.417 13.55759,0 16.75317,0.3338 25.5,2.644 10.1775,2.6879 23.23305,8.3608 31.68649,13.7683 l 4.6865,2.9979 -0.42898,6.6865 c -0.23593,3.6776 -0.69535,10.5951 -1.02091,15.3723 l -0.59194,8.6858 -6.16558,-4.5828 c -7.48387,-5.5626 -21.83696,-12.4704 -30.66558,-14.7587 -10.09048,-2.6152 -27.91234,-3.13 -38.05846,-1.0993 -18.95575,3.7939 -36.24937,16.1918 -45.70116,32.7633 -8.66434,15.1909 -11.56515,40.592 -6.77275,59.3059 5.98443,23.3686 25.09653,42.634 48.14185,48.528 22.4444,5.7403 51.92402,-1.0861 72.64052,-16.821 l 6.75,-5.1268 v 17.4473 17.4474 l -3.78699,2.3906 c -18.52959,11.6972 -44.41104,17.515 -66.71301,14.996 z m 570.55815,-0.4832 c -31.48049,-3.6475 -51.50954,-19.6212 -59.04092,-47.0868 -3.26305,-11.8998 -3.98472,-28.1394 -4.0014,-90.0415 l -0.0158,-58.75 h 15.5 15.5 l 0.0174,63.25 c 0.019,69.0708 0.16496,71.1608 5.80895,83.1624 5.20117,11.06 16.02921,19.0948 29.06451,21.5669 6.86647,1.3022 19.28875,1.3095 26.22269,0.015 12.69721,-2.3697 24.38902,-11.2979 29.54593,-22.562 4.93637,-10.7825 5.26801,-15.982 5.30567,-83.1827 l 0.0349,-62.25 h 15.5 15.5 v 62.7762 c 0,75.5599 -0.57932,82.1498 -8.72273,99.2238 -4.75923,9.9785 -14.91325,20.282 -24.98578,25.3537 -16.18634,8.1502 -38.1159,11.2031 -61.23334,8.5246 z m -453.05815,-99.8783 v -96 h 15.5 15.5 v 35.5 35.5 h 47.500002 47.5 v -35.5 -35.5 h 15.499999 15.5000013 v 96 96 H -16.869199 -32.369198 v -46.5 -46.5 h -47.5 -47.500002 v 46.5 46.5 h -15.5 -15.5 z m 186.312322,89.1448 c 1.75323,-3.7703 22.53768,-48.5044 46.18768,-99.409 23.649995,-50.9046 43.331448,-92.2408 43.736568,-91.8582 0.83736,0.7907 90.68534,193.6679 91.48797,196.3978 0.48708,1.6566 -0.56027,1.7569 -15.66223,1.5 l -16.18423,-0.2754 -10.68904,-24.2362 -10.68904,-24.2363 -38.42756,0.2363 -38.427548,0.2362 -11.04376,24.25 -11.04376,24.25 h -16.21636 -16.21636 z m 116.687678,-68.5571 c 0,-0.2268 -4.32727,-10.0143 -9.61615,-21.75 -5.28888,-11.7357 -11.31277,-26.2877 -13.38642,-32.3377 -2.07365,-6.05 -4.01116,-10.325 -4.30559,-9.5 -0.29443,0.825 -1.51544,4.65 -2.71335,8.5 -1.19791,3.85 -6.85813,17.6472 -12.57825,30.6605 -5.720133,13.0133 -10.400243,23.9258 -10.400243,24.25 0,0.3242 11.925003,0.5895 26.500003,0.5895 14.575,0 26.5,-0.1855 26.5,-0.4123 z m 296,-20.4602 v -96.1275 h 27.75 c 28.5848,0 55.2226,1.242 65.75,3.0565 37.6918,6.4967 63.332,35.1543 68.3914,76.44 6.2868,51.3012 -15.5201,92.8999 -55.8164,106.4747 -12.6061,4.2467 -23.3413,5.184 -65.825,5.7469 l -40.25,0.5334 v -96.1275 z m 87.5,65.8638 c 19.5959,-4.6995 34.6743,-20.5293 40.6644,-42.6908 1.7184,-6.3575 2.1084,-10.6679 2.1084,-23.3005 0,-12.6326 -0.39,-16.9431 -2.1084,-23.3005 -4.213,-15.5869 -13.9432,-29.582 -25.3289,-36.4312 -10.0765,-6.0616 -18.1775,-7.4549 -46.5855,-8.0126 l -25.25,-0.4957 v 68.229 68.229 l 25.75,-0.5138 c 14.6469,-0.2923 27.9059,-1.0309 30.75,-1.7129 z m 119.5,-65.9913 v -96 h 53.5 53.5 v 13.5 13.5 h -38 -38 v 24 24 h 38 38 v 13.5 13.5 h -38 -38 v 31 31 h 38 38 v 14 14 h -53.5 -53.5 z"
         id="path4217"
         inkscape:connector-curvature="0" />
    </a>
    <text
       id="text4279"
       y="164.16772"
       x="62.118046"
       style="font-style:normal;font-weight:normal;font-size:40px;line-height:1.25;font-family:sans-serif;letter-spacing:0px;word-spacing:0px;fill:#2c6aa2;fill-opacity:1;stroke:none"
       xml:space="preserve"><tspan
         style="font-style:normal;font-variant:normal;font-weight:normal;font-stretch:normal;font-size:16px;font-family:'Kabel Bk BT';-inkscape-font-specification:'Kabel Bk BT';letter-spacing:0.05px;word-spacing:0.40000001px;fill:#2c6aa2;fill-opacity:1"
         y="164.16772"
         x="62.118046"
         id="tspan4277"
         sodipodi:role="line"><tspan
   id="tspan5388"
   style="font-style:normal;font-variant:normal;font-weight:normal;font-stretch:normal;font-size:17.33333397px;font-family:'Franklin Gothic Demi';-inkscape-font-specification:'Franklin Gothic Demi';letter-spacing:0.05px;word-spacing:0.40000001px">T</tspan><tspan
   id="tspan4557"
   style="font-size:10.66666698px;letter-spacing:0.05px;word-spacing:0.40000001px;fill:#000000;fill-opacity:1">ECHNICAL</tspan> <tspan
   id="tspan5394"
   style="font-style:normal;font-variant:normal;font-weight:normal;font-stretch:normal;font-size:17.33333397px;font-family:'Franklin Gothic Demi';-inkscape-font-specification:'Franklin Gothic Demi';letter-spacing:0.05px;word-spacing:0.40000001px">P</tspan><tspan
   id="tspan4567"
   style="font-size:10.66667175px;letter-spacing:0.05px;word-spacing:0.40000001px;fill:#000000;fill-opacity:1">ARTS</tspan> <tspan
   id="tspan5396"
   style="font-style:normal;font-variant:normal;font-weight:normal;font-stretch:normal;font-size:17.33333397px;font-family:'Franklin Gothic Demi';-inkscape-font-specification:'Franklin Gothic Demi';letter-spacing:0.05px;word-spacing:0.40000001px">T</tspan><tspan
   id="tspan4571"
   style="font-size:10.66666698px;letter-spacing:0.05px;word-spacing:0.40000001px;fill:#000000;fill-opacity:1">RADING</tspan></tspan></text>
  </g>
</svg>
